# Blender v2.74 (sub 0) OBJ File: 'spaceship.blend'
# www.blender.org
mtllib cor_floor.mtl
o floor_Cube.002
v -0.700000 -0.200000 -0.500000
v -0.600000 -0.160000 -1.700000
v -0.700000 -0.200000 -1.800000
v -0.500000 -0.160000 -1.800000
v -0.600000 -0.200000 -1.900000
v -0.600000 -0.200000 -0.000000
v -0.500000 -0.160000 0.000000
v -0.600000 -0.200000 -2.400000
v -0.700000 -0.200000 -2.500000
v -0.500000 -0.160000 -2.500000
v -0.600000 -0.160000 -2.600000
v -0.600000 -0.200000 -0.400000
v -0.500000 -0.160000 -4.000000
v -0.500000 -0.160000 -0.500000
v -0.600000 -0.160000 -0.600000
v -0.600000 -0.160000 -3.700000
v -0.600000 -0.200000 -3.900000
v -0.500000 -0.160000 -3.800000
v -0.700000 -0.200000 -3.800000
v -0.600000 -0.200000 -4.000000
v -0.700000 -0.200000 -0.300000
v -0.700000 -0.200000 -2.000000
v -0.700000 -0.200000 -2.300000
v -0.700000 -0.200000 -4.000000
v 0.700000 -0.200000 -0.500000
v 0.600000 -0.160000 -1.700000
v 0.700000 -0.200000 -1.800000
v 0.500000 -0.160000 -1.800000
v 0.600000 -0.200000 -1.900000
v 0.600000 -0.200000 -0.000000
v 0.500000 -0.160000 0.000000
v 0.600000 -0.200000 -2.400000
v 0.700000 -0.200000 -2.500000
v 0.500000 -0.160000 -2.500000
v 0.600000 -0.160000 -2.600000
v 0.600000 -0.200000 -0.400000
v 0.500000 -0.160000 -4.000000
v 0.500000 -0.160000 -0.500000
v 0.600000 -0.160000 -0.600000
v 0.600000 -0.160000 -3.700000
v 0.600000 -0.200000 -3.900000
v 0.500000 -0.160000 -3.800000
v 0.700000 -0.200000 -3.800000
v 0.600000 -0.200000 -4.000000
v 0.700000 -0.200000 -0.300000
v 0.700000 -0.200000 -2.000000
v 0.700000 -0.200000 -2.300000
v 0.700000 -0.200000 -4.000000
vt 0.070312 0.925781
vt 0.105469 0.968750
vt 0.066406 1.000000
vt 0.031250 0.964844
vt 0.738281 0.371094
vt 0.738281 0.000000
vt 1.000000 0.000000
vt 1.000000 0.371094
vt 0.925781 0.371094
vt 0.925781 0.417969
vt 0.960938 0.417969
vt 0.539062 0.542969
vt 0.000000 0.542969
vt 0.000000 0.046875
vt 0.539062 0.046875
vt 0.488281 0.968750
vt 0.523438 0.925781
vt 0.042969 0.000000
vt 0.500000 0.000000
vt 0.496094 0.589844
vt 0.042969 0.589844
vt 0.781250 0.417969
vt 0.925781 0.000000
vt 0.527344 1.000000
vt 0.562500 0.964844
vt 0.593750 0.925781
vt 0.000000 0.925781
vn -0.192500 0.962300 -0.192500
vn 0.000000 1.000000 0.000000
vn -0.371400 0.928500 0.000000
vn -0.192400 0.962300 -0.192500
vn -0.192400 0.962300 0.192500
vn -0.192500 0.962300 0.192500
vn 0.192500 0.962300 -0.192500
vn 0.371400 0.928500 0.000000
vn 0.192400 0.962300 -0.192500
vn 0.192400 0.962300 0.192500
vn 0.192500 0.962300 0.192500
usemtl floor
s off
f 3/1/1 2/2/1 4/3/1 5/4/1
f 4/5/2 28/6/2 34/7/2 10/8/2
f 13/9/3 20/10/3 17/11/3 18/8/3
f 19/1/4 16/2/4 18/3/4 17/4/4
f 26/12/2 2/13/2 15/14/2 39/15/2
f 15/16/3 2/2/3 3/1/3 1/17/3
f 16/15/2 40/14/2 42/18/2 18/19/2
f 10/20/2 34/21/2 35/13/2 11/12/2
f 7/9/3 14/5/3 12/22/3 6/10/3
f 18/9/2 42/23/2 37/7/2 13/8/2
f 40/14/2 16/15/2 11/12/2 35/13/2
f 31/6/2 38/23/2 14/9/2 7/5/2
f 10/24/5 11/16/5 9/17/5 8/25/5
f 19/1/3 9/17/3 11/16/3 16/2/3
f 4/5/3 10/8/3 8/11/3 5/22/3
f 14/24/6 15/16/6 1/17/6 12/25/6
f 14/18/2 38/19/2 39/15/2 15/14/2
f 1/17/2 21/26/2 12/25/2
f 3/1/2 5/4/2 22/27/2
f 9/17/2 23/26/2 8/25/2
f 19/1/2 17/4/2 24/27/2
f 27/17/7 29/25/7 28/24/7 26/16/7
f 37/9/8 42/8/8 41/11/8 44/10/8
f 43/17/9 41/25/9 42/24/9 40/16/9
f 39/2/8 25/1/8 27/17/8 26/16/8
f 31/9/8 30/10/8 36/22/8 38/5/8
f 34/3/10 32/4/10 33/1/10 35/2/10
f 43/17/8 40/16/8 35/2/8 33/1/8
f 28/8/8 29/11/8 32/22/8 34/5/8
f 38/3/11 36/4/11 25/1/11 39/2/11
f 25/1/2 36/4/2 45/27/2
f 27/17/2 46/26/2 29/25/2
f 33/1/2 32/4/2 47/27/2
f 43/17/2 48/26/2 41/25/2
f 2/13/2 26/12/2 28/20/2 4/21/2
