# Blender v2.74 (sub 0) OBJ File: 'spaceship.blend'
# www.blender.org
mtllib cor_roof_panel.mtl
o roof_panel_Plane.004
v -0.860000 2.190000 -1.200000
v -0.060000 2.190000 -1.200000
v -0.860000 2.190000 -2.000000
v -0.060000 2.190000 -2.000000
v -0.780000 2.150000 -1.280000
v -0.140000 2.150000 -1.280000
v -0.780000 2.150000 -1.920000
v -0.140000 2.150000 -1.920000
v -0.860000 2.190000 -0.300000
v -0.060000 2.190000 -0.300000
v -0.860000 2.190000 -1.100000
v -0.060000 2.190000 -1.100000
v -0.780000 2.150000 -0.380000
v -0.140000 2.150000 -0.380000
v -0.780000 2.150000 -1.020000
v -0.140000 2.150000 -1.020000
v 0.840000 2.190000 -1.200000
v 0.040000 2.190000 -1.200000
v 0.840000 2.190000 -2.000000
v 0.040000 2.190000 -2.000000
v 0.760000 2.150000 -1.280000
v 0.120000 2.150000 -1.280000
v 0.760000 2.150000 -1.920000
v 0.120000 2.150000 -1.920000
v 0.840000 2.190000 -0.300000
v 0.040000 2.190000 -0.300000
v 0.840000 2.190000 -1.100000
v 0.040000 2.190000 -1.100000
v 0.760000 2.150000 -0.380000
v 0.120000 2.150000 -0.380000
v 0.760000 2.150000 -1.020000
v 0.120000 2.150000 -1.020000
v -0.860000 2.190000 -3.100000
v -0.060000 2.190000 -3.100000
v -0.860000 2.190000 -2.300000
v -0.060000 2.190000 -2.300000
v -0.780000 2.150000 -3.020000
v -0.140000 2.150000 -3.020000
v -0.780000 2.150000 -2.380001
v -0.140000 2.150000 -2.380001
v -0.860000 2.190000 -4.000000
v -0.060000 2.190000 -4.000000
v -0.860000 2.190000 -3.200001
v -0.060000 2.190000 -3.200001
v -0.780000 2.150000 -3.920001
v -0.140000 2.150000 -3.920001
v -0.780000 2.150000 -3.280000
v -0.140000 2.150000 -3.280000
v 0.840000 2.190000 -3.100000
v 0.040000 2.190000 -3.100000
v 0.840000 2.190000 -2.300000
v 0.040000 2.190000 -2.300000
v 0.760000 2.150000 -3.020000
v 0.120000 2.150000 -3.020000
v 0.760000 2.150000 -2.380001
v 0.120000 2.150000 -2.380001
v 0.840000 2.190000 -4.000000
v 0.040000 2.190000 -4.000000
v 0.840000 2.190000 -3.200001
v 0.040000 2.190000 -3.200001
v 0.760000 2.150000 -3.920001
v 0.120000 2.150000 -3.920001
v 0.760000 2.150000 -3.280000
v 0.120000 2.150000 -3.280000
vt 0.055943 0.941751
vt 0.056401 0.554028
vt 0.444073 0.553006
vt 0.443615 0.940730
vt 0.499817 0.498461
vt 0.001969 0.498453
vt 0.498048 0.996304
vt 0.000199 0.996296
vt 0.054688 0.945312
vt 0.054688 0.558594
vt 0.441406 0.554688
vt 0.441406 0.941406
vt 0.496094 0.500000
vt 0.000000 0.503906
vt 0.496094 1.000000
vt 0.000000 1.000000
vn 0.000000 -1.000000 0.000000
vn 0.000000 -0.894400 -0.447200
vn 0.447200 -0.894400 0.000000
vn 0.000000 -0.894400 0.447200
vn -0.447200 -0.894400 0.000000
usemtl Material
s off
f 5/1/1 7/2/1 8/3/1 6/4/1
f 4/5/2 8/3/2 7/2/2 3/6/2
f 2/7/3 6/4/3 8/3/3 4/5/3
f 1/8/4 5/1/4 6/4/4 2/7/4
f 3/6/5 7/2/5 5/1/5 1/8/5
f 13/9/1 15/10/1 16/11/1 14/12/1
f 12/13/2 16/11/2 15/10/2 11/14/2
f 10/15/3 14/12/3 16/11/3 12/13/3
f 9/16/4 13/9/4 14/12/4 10/15/4
f 11/14/5 15/10/5 13/9/5 9/16/5
f 21/1/1 22/4/1 24/3/1 23/2/1
f 20/5/2 19/6/2 23/2/2 24/3/2
f 18/7/5 20/5/5 24/3/5 22/4/5
f 17/8/4 18/7/4 22/4/4 21/1/4
f 19/6/3 17/8/3 21/1/3 23/2/3
f 29/9/1 30/12/1 32/11/1 31/10/1
f 28/13/2 27/14/2 31/10/2 32/11/2
f 26/15/5 28/13/5 32/11/5 30/12/5
f 25/16/4 26/15/4 30/12/4 29/9/4
f 27/14/3 25/16/3 29/9/3 31/10/3
f 37/1/1 38/4/1 40/3/1 39/2/1
f 36/5/4 35/6/4 39/2/4 40/3/4
f 34/7/3 36/5/3 40/3/3 38/4/3
f 33/8/2 34/7/2 38/4/2 37/1/2
f 35/6/5 33/8/5 37/1/5 39/2/5
f 45/9/1 46/12/1 48/11/1 47/10/1
f 44/13/4 43/14/4 47/10/4 48/11/4
f 42/15/3 44/13/3 48/11/3 46/12/3
f 41/16/2 42/15/2 46/12/2 45/9/2
f 43/14/5 41/16/5 45/9/5 47/10/5
f 53/1/1 55/2/1 56/3/1 54/4/1
f 52/5/4 56/3/4 55/2/4 51/6/4
f 50/7/5 54/4/5 56/3/5 52/5/5
f 49/8/2 53/1/2 54/4/2 50/7/2
f 51/6/3 55/2/3 53/1/3 49/8/3
f 61/9/1 63/10/1 64/11/1 62/12/1
f 60/13/4 64/11/4 63/10/4 59/14/4
f 58/15/5 62/12/5 64/11/5 60/13/5
f 57/16/2 61/9/2 62/12/2 58/15/2
f 59/14/3 63/10/3 61/9/3 57/16/3
