# Blender v2.74 (sub 0) OBJ File: 'spaceship.blend'
# www.blender.org
mtllib cor_pipes_large.mtl
o pipes_large_Circle.002
v -0.900000 2.200000 -0.260000
v -0.976537 2.184776 -0.260000
v -1.041421 2.141421 -0.260000
v -1.084776 2.076537 -0.260000
v -1.100000 2.000000 -0.260000
v -1.084776 1.923463 -0.260000
v -1.041421 1.858579 -0.260000
v -0.976537 1.815224 -0.260000
v -0.900000 1.800000 -0.260000
v -0.823463 1.815224 -0.260000
v -0.758579 1.858579 -0.260000
v -0.715224 1.923463 -0.260000
v -0.700000 2.000000 -0.260000
v -0.715224 2.076537 -0.260000
v -0.758579 2.141421 -0.260000
v -0.823463 2.184776 -0.260000
v -0.900000 2.200000 -4.000000
v -0.976537 2.184776 -4.000000
v -1.041421 2.141421 -4.000000
v -1.084776 2.076537 -4.000000
v -1.100000 2.000000 -4.000000
v -1.084776 1.923463 -4.000000
v -1.041421 1.858579 -4.000000
v -0.976537 1.815224 -4.000000
v -0.900000 1.800000 -4.000000
v -0.823463 1.815224 -4.000000
v -0.758579 1.858579 -4.000000
v -0.715224 1.923463 -4.000000
v -0.700000 2.000000 -4.000000
v -0.715224 2.076537 -4.000000
v -0.758579 2.141421 -4.000000
v -0.823463 2.184776 -4.000000
v -0.900000 2.200000 -0.040000
v -0.976537 2.184776 -0.040000
v -1.041421 2.141421 -0.040000
v -1.084776 2.076537 -0.040000
v -1.100000 2.000000 -0.040000
v -1.084776 1.923463 -0.040000
v -1.041421 1.858579 -0.040000
v -0.976537 1.815224 -0.040000
v -0.900000 1.800000 -0.040000
v -0.823463 1.815224 -0.040000
v -0.758579 1.858579 -0.040000
v -0.715224 1.923463 -0.040000
v -0.700000 2.000000 -0.040000
v -0.715224 2.076537 -0.040000
v -0.758579 2.141421 -0.040000
v -0.823463 2.184776 -0.040000
v -0.900000 2.200000 0.000000
v -0.976537 2.184776 0.000000
v -1.041421 2.141421 0.000000
v -1.084776 2.076537 0.000000
v -1.100000 2.000000 0.000000
v -1.084776 1.923463 0.000000
v -1.041421 1.858579 0.000000
v -0.976537 1.815224 0.000000
v -0.900000 1.800000 0.000000
v -0.823463 1.815224 0.000000
v -0.758579 1.858579 0.000000
v -0.715224 1.923463 0.000000
v -0.700000 2.000000 0.000000
v -0.715224 2.076537 0.000000
v -0.758579 2.141421 0.000000
v -0.823463 2.184776 0.000000
v -0.991844 2.221731 -0.249000
v -0.900000 2.240000 -0.249000
v -1.069706 2.169706 -0.249000
v -1.121731 2.091844 -0.249000
v -1.140000 2.000000 -0.249000
v -1.121731 1.908156 -0.249000
v -1.069706 1.830294 -0.249000
v -0.991844 1.778269 -0.249000
v -0.900000 1.760000 -0.249000
v -0.808156 1.778269 -0.249000
v -0.730294 1.830294 -0.249000
v -0.678269 1.908156 -0.249000
v -0.660000 2.000000 -0.249000
v -0.678269 2.091844 -0.249000
v -0.730294 2.169706 -0.249000
v -0.808156 2.221731 -0.249000
v -0.991844 2.221731 -0.051000
v -0.900000 2.240000 -0.051000
v -1.069706 2.169706 -0.051000
v -1.121731 2.091844 -0.051000
v -1.140000 2.000000 -0.051000
v -1.121731 1.908156 -0.051000
v -1.069706 1.830294 -0.051000
v -0.991844 1.778269 -0.051000
v -0.900000 1.760000 -0.051000
v -0.808156 1.778269 -0.051000
v -0.730294 1.830294 -0.051000
v -0.678269 1.908156 -0.051000
v -0.660000 2.000000 -0.051000
v -0.678269 2.091844 -0.051000
v -0.730294 2.169706 -0.051000
v -0.808156 2.221731 -0.051000
v 0.900000 2.200000 -0.260000
v 0.976537 2.184776 -0.260000
v 1.041421 2.141421 -0.260000
v 1.084776 2.076537 -0.260000
v 1.100000 2.000000 -0.260000
v 1.084776 1.923463 -0.260000
v 1.041421 1.858579 -0.260000
v 0.976537 1.815224 -0.260000
v 0.900000 1.800000 -0.260000
v 0.823463 1.815224 -0.260000
v 0.758579 1.858579 -0.260000
v 0.715224 1.923463 -0.260000
v 0.700000 2.000000 -0.260000
v 0.715224 2.076537 -0.260000
v 0.758579 2.141421 -0.260000
v 0.823463 2.184776 -0.260000
v 0.900000 2.200000 -4.000000
v 0.976537 2.184776 -4.000000
v 1.041421 2.141421 -4.000000
v 1.084776 2.076537 -4.000000
v 1.100000 2.000000 -4.000000
v 1.084776 1.923463 -4.000000
v 1.041421 1.858579 -4.000000
v 0.976537 1.815224 -4.000000
v 0.900000 1.800000 -4.000000
v 0.823463 1.815224 -4.000000
v 0.758579 1.858579 -4.000000
v 0.715224 1.923463 -4.000000
v 0.700000 2.000000 -4.000000
v 0.715224 2.076537 -4.000000
v 0.758579 2.141421 -4.000000
v 0.823463 2.184776 -4.000000
v 0.900000 2.200000 -0.040000
v 0.976537 2.184776 -0.040000
v 1.041421 2.141421 -0.040000
v 1.084776 2.076537 -0.040000
v 1.100000 2.000000 -0.040000
v 1.084776 1.923463 -0.040000
v 1.041421 1.858579 -0.040000
v 0.976537 1.815224 -0.040000
v 0.900000 1.800000 -0.040000
v 0.823463 1.815224 -0.040000
v 0.758579 1.858579 -0.040000
v 0.715224 1.923463 -0.040000
v 0.700000 2.000000 -0.040000
v 0.715224 2.076537 -0.040000
v 0.758579 2.141421 -0.040000
v 0.823463 2.184776 -0.040000
v 0.900000 2.200000 0.000000
v 0.976537 2.184776 0.000000
v 1.041421 2.141421 0.000000
v 1.084776 2.076537 0.000000
v 1.100000 2.000000 0.000000
v 1.084776 1.923463 0.000000
v 1.041421 1.858579 0.000000
v 0.976537 1.815224 0.000000
v 0.900000 1.800000 0.000000
v 0.823463 1.815224 0.000000
v 0.758579 1.858579 0.000000
v 0.715224 1.923463 0.000000
v 0.700000 2.000000 0.000000
v 0.715224 2.076537 0.000000
v 0.758579 2.141421 0.000000
v 0.823463 2.184776 0.000000
v 0.991844 2.221731 -0.249000
v 0.900000 2.240000 -0.249000
v 1.069706 2.169706 -0.249000
v 1.121731 2.091844 -0.249000
v 1.140000 2.000000 -0.249000
v 1.121731 1.908156 -0.249000
v 1.069706 1.830294 -0.249000
v 0.991844 1.778269 -0.249000
v 0.900000 1.760000 -0.249000
v 0.808156 1.778269 -0.249000
v 0.730294 1.830294 -0.249000
v 0.678269 1.908156 -0.249000
v 0.660000 2.000000 -0.249000
v 0.678269 2.091844 -0.249000
v 0.730294 2.169706 -0.249000
v 0.808156 2.221731 -0.249000
v 0.991844 2.221731 -0.051000
v 0.900000 2.240000 -0.051000
v 1.069706 2.169706 -0.051000
v 1.121731 2.091844 -0.051000
v 1.140000 2.000000 -0.051000
v 1.121731 1.908156 -0.051000
v 1.069706 1.830294 -0.051000
v 0.991844 1.778269 -0.051000
v 0.900000 1.760000 -0.051000
v 0.808156 1.778269 -0.051000
v 0.730294 1.830294 -0.051000
v 0.678269 1.908156 -0.051000
v 0.660000 2.000000 -0.051000
v 0.678269 2.091844 -0.051000
v 0.730294 2.169706 -0.051000
v 0.808156 2.221731 -0.051000
vt 0.000000 0.019531
vt 0.000000 0.000000
vt 1.000000 0.000000
vt 1.000000 0.019531
vt 0.000000 0.250000
vt 0.000000 0.226562
vt 1.000000 0.226562
vt 1.000000 0.250000
vt 0.000000 0.312500
vt 0.000000 0.289062
vt 1.000000 0.289062
vt 1.000000 0.312500
vt 0.000000 0.207031
vt 0.000000 0.187500
vt 1.000000 0.187500
vt 1.000000 0.207031
vt 0.000000 0.269531
vt 1.000000 0.269531
vt 0.000000 0.164062
vt 0.000000 0.144531
vt 1.000000 0.144531
vt 1.000000 0.164062
vt 0.000000 0.125000
vt 0.000000 0.101562
vt 1.000000 0.101562
vt 1.000000 0.125000
vt 0.000000 0.082031
vt 0.000000 0.062500
vt 1.000000 0.062500
vt 1.000000 0.082031
vt 0.000000 0.039062
vt 1.000000 0.039062
vt 0.000000 0.332031
vt 1.000000 0.332031
vt 0.031250 0.335938
vt 0.058594 0.339844
vt 0.058594 0.351562
vt 0.031250 0.347656
vt 0.156250 0.343750
vt 0.179688 0.343750
vt 0.179688 0.355469
vt 0.156250 0.355469
vt 0.296875 0.414062
vt 0.277344 0.414062
vt 0.277344 0.402344
vt 0.296875 0.402344
vt 0.367188 0.343750
vt 0.390625 0.339844
vt 0.394531 0.351562
vt 0.367188 0.355469
vt 0.109375 0.339844
vt 0.132812 0.343750
vt 0.132812 0.355469
vt 0.109375 0.351562
vt 0.253906 0.414062
vt 0.230469 0.414062
vt 0.230469 0.402344
vt 0.253906 0.402344
vt 0.320312 0.343750
vt 0.343750 0.343750
vt 0.343750 0.355469
vt 0.320312 0.355469
vt 0.207031 0.414062
vt 0.183594 0.414062
vt 0.183594 0.402344
vt 0.207031 0.402344
vt 0.082031 0.417969
vt 0.058594 0.417969
vt 0.058594 0.406250
vt 0.082031 0.402344
vt 0.273438 0.343750
vt 0.296875 0.343750
vt 0.296875 0.355469
vt 0.273438 0.355469
vt 0.156250 0.414062
vt 0.132812 0.414062
vt 0.132812 0.402344
vt 0.156250 0.402344
vt 0.031250 0.417969
vt 0.003906 0.421875
vt 0.000000 0.410156
vt 0.031250 0.406250
vt 0.226562 0.343750
vt 0.250000 0.343750
vt 0.250000 0.355469
vt 0.226562 0.355469
vt 0.367188 0.417969
vt 0.343750 0.417969
vt 0.343750 0.406250
vt 0.367188 0.406250
vt 0.082031 0.339844
vt 0.082031 0.351562
vt 0.203125 0.343750
vt 0.203125 0.355469
vt 0.011719 0.269531
vt 0.011719 0.289062
vt 0.011719 0.164062
vt 0.011719 0.187500
vt 0.011719 0.125000
vt 0.011719 0.144531
vt 0.011719 0.082031
vt 0.011719 0.101562
vt 0.011719 0.039062
vt 0.011719 0.062500
vt 0.011719 0.000000
vt 0.011719 0.019531
vt 0.011719 0.226562
vt 0.011719 0.250000
vt 0.011719 0.312500
vt 0.011719 0.207031
vt 0.011719 0.332031
vt 0.003906 0.343750
vt 0.320312 0.402344
vt 0.394531 0.410156
vt 0.109375 0.402344
vt 0.320312 0.414062
vt 0.386719 0.421875
vt 0.109375 0.417969
vt 0.007812 0.332031
vn -0.980800 -0.195100 0.000000
vn 0.195100 0.980800 0.000000
vn -0.831500 0.555600 0.000000
vn 0.831500 0.555600 0.000000
vn -0.195100 0.980800 0.000000
vn 0.980800 -0.195100 0.000000
vn 0.555600 -0.831500 0.000000
vn -0.195100 -0.980800 0.000000
vn -0.831500 -0.555600 0.000000
vn -0.980800 0.195100 0.000000
vn 0.555600 0.831500 0.000000
vn -0.555600 0.831500 0.000000
vn 0.980800 0.195100 0.000000
vn 0.831500 -0.555600 0.000000
vn 0.195100 -0.980800 0.000000
vn -0.555600 -0.831500 0.000000
vn -0.224500 0.150000 0.962900
vn 0.224500 0.150000 0.962900
vn 0.052700 -0.264800 -0.962900
vn -0.264800 -0.052700 0.962900
vn 0.052700 0.264800 0.962900
vn 0.224500 -0.150000 -0.962900
vn -0.150000 -0.224500 0.962900
vn 0.264800 0.052700 -0.962900
vn -0.150000 0.224500 -0.962900
vn 0.052700 -0.264800 0.962900
vn 0.150000 0.224500 -0.962900
vn -0.264800 0.052700 -0.962900
vn 0.224500 -0.150000 0.962900
vn -0.224500 -0.150000 -0.962900
vn -0.150000 0.224500 0.962900
vn 0.264800 0.052700 0.962900
vn -0.150000 -0.224500 -0.962900
vn 0.264800 -0.052700 0.962900
vn -0.052700 0.264800 0.962900
vn -0.264800 -0.052700 -0.962900
vn 0.052700 0.264800 -0.962900
vn 0.150000 -0.224500 0.962900
vn -0.224500 0.150000 -0.962900
vn 0.224500 0.150000 -0.962900
vn -0.052700 -0.264800 0.962900
vn -0.052700 0.264800 -0.962900
vn 0.264800 -0.052700 -0.962900
vn -0.224500 -0.150000 0.962900
vn 0.150000 -0.224500 -0.962900
vn 0.150000 0.224500 0.962900
vn -0.264800 0.052700 0.962900
vn -0.052700 -0.264800 -0.962900
usemtl Material
s off
f 6/1/1 5/2/1 21/3/1 22/4/1
f 1/5/2 16/6/2 32/7/2 17/8/2
f 4/9/3 3/10/3 19/11/3 20/12/3
f 15/13/4 14/14/4 30/15/4 31/16/4
f 2/17/5 1/5/5 17/8/5 18/18/5
f 13/19/6 12/20/6 28/21/6 29/22/6
f 11/23/7 10/24/7 26/25/7 27/26/7
f 9/27/8 8/28/8 24/29/8 25/30/8
f 7/31/9 6/1/9 22/4/9 23/32/9
f 5/33/10 4/9/10 20/12/10 21/34/10
f 16/6/11 15/13/11 31/16/11 32/7/11
f 3/10/12 2/17/12 18/18/12 19/11/12
f 14/14/13 13/19/13 29/22/13 30/15/13
f 12/20/14 11/23/14 27/26/14 28/21/14
f 10/24/15 9/27/15 25/30/15 26/25/15
f 8/28/16 7/31/16 23/32/16 24/29/16
f 36/35/17 35/36/17 83/37/17 84/38/17
f 47/39/18 46/40/18 94/41/18 95/42/18
f 9/43/19 10/44/19 74/45/19 73/46/19
f 38/47/20 37/48/20 85/49/20 86/50/20
f 33/51/21 48/52/21 96/53/21 82/54/21
f 11/55/22 12/56/22 76/57/22 75/58/22
f 40/59/23 39/60/23 87/61/23 88/62/23
f 13/63/24 14/64/24 78/65/24 77/66/24
f 2/67/25 3/68/25 67/69/25 65/70/25
f 42/71/26 41/72/26 89/73/26 90/74/26
f 15/75/27 16/76/27 80/77/27 79/78/27
f 4/79/28 5/80/28 69/81/28 68/82/28
f 44/83/29 43/84/29 91/85/29 92/86/29
f 6/87/30 7/88/30 71/89/30 70/90/30
f 35/36/31 34/91/31 81/92/31 83/37/31
f 46/40/32 45/93/32 93/94/32 94/41/32
f 34/95/12 35/96/12 51/10/12 50/17/12
f 45/97/13 46/98/13 62/14/13 61/19/13
f 43/99/14 44/100/14 60/20/14 59/23/14
f 41/101/15 42/102/15 58/24/15 57/27/15
f 39/103/16 40/104/16 56/28/16 55/31/16
f 37/105/1 38/106/1 54/1/1 53/2/1
f 48/107/2 33/108/2 49/5/2 64/6/2
f 35/96/3 36/109/3 52/9/3 51/10/3
f 46/98/4 47/110/4 63/13/4 62/14/4
f 33/108/5 34/95/5 50/17/5 49/5/5
f 44/100/6 45/97/6 61/19/6 60/20/6
f 42/102/7 43/99/7 59/23/7 58/24/7
f 40/104/8 41/101/8 57/27/8 56/28/8
f 38/106/9 39/103/9 55/31/9 54/1/9
f 36/109/10 37/111/10 53/33/10 52/9/10
f 47/110/11 48/107/11 64/6/11 63/13/11
f 70/90/9 71/89/9 87/61/9 86/50/9
f 68/82/10 69/81/10 85/112/10 84/38/10
f 79/78/11 80/77/11 96/53/11 95/42/11
f 65/70/12 67/69/12 83/37/12 81/92/12
f 77/66/13 78/65/13 94/41/13 93/94/13
f 75/58/14 76/57/14 92/86/14 91/85/14
f 73/46/15 74/45/15 90/74/15 89/73/15
f 71/89/16 72/113/16 88/62/16 87/61/16
f 69/114/1 70/90/1 86/50/1 85/49/1
f 80/77/2 66/115/2 82/54/2 96/53/2
f 67/69/3 68/82/3 84/38/3 83/37/3
f 78/65/4 79/78/4 95/42/4 94/41/4
f 66/115/5 65/70/5 81/92/5 82/54/5
f 76/57/6 77/66/6 93/94/6 92/86/6
f 74/45/7 75/58/7 91/85/7 90/74/7
f 72/113/8 73/46/8 89/73/8 88/62/8
f 7/88/33 8/116/33 72/113/33 71/89/33
f 45/93/34 44/83/34 92/86/34 93/94/34
f 34/91/35 33/51/35 82/54/35 81/92/35
f 5/117/36 6/87/36 70/90/36 69/114/36
f 16/76/37 1/118/37 66/115/37 80/77/37
f 43/84/38 42/71/38 90/74/38 91/85/38
f 3/68/39 4/79/39 68/82/39 67/69/39
f 14/64/40 15/75/40 79/78/40 78/65/40
f 41/72/41 40/59/41 88/62/41 89/73/41
f 1/118/42 2/67/42 65/70/42 66/115/42
f 12/56/43 13/63/43 77/66/43 76/57/43
f 39/60/44 38/47/44 86/50/44 87/61/44
f 10/44/45 11/55/45 75/58/45 74/45/45
f 48/52/46 47/39/46 95/42/46 96/53/46
f 37/119/47 36/35/47 84/38/47 85/112/47
f 8/116/48 9/43/48 73/46/48 72/113/48
f 102/1/6 118/4/6 117/3/6 101/2/6
f 97/5/5 113/8/5 128/7/5 112/6/5
f 100/9/4 116/12/4 115/11/4 99/10/4
f 111/13/3 127/16/3 126/15/3 110/14/3
f 98/17/2 114/18/2 113/8/2 97/5/2
f 109/19/1 125/22/1 124/21/1 108/20/1
f 107/23/16 123/26/16 122/25/16 106/24/16
f 105/27/15 121/30/15 120/29/15 104/28/15
f 103/31/14 119/32/14 118/4/14 102/1/14
f 101/33/13 117/34/13 116/12/13 100/9/13
f 112/6/12 128/7/12 127/16/12 111/13/12
f 99/10/11 115/11/11 114/18/11 98/17/11
f 110/14/10 126/15/10 125/22/10 109/19/10
f 108/20/9 124/21/9 123/26/9 107/23/9
f 106/24/8 122/25/8 121/30/8 105/27/8
f 104/28/7 120/29/7 119/32/7 103/31/7
f 132/35/18 180/38/18 179/37/18 131/36/18
f 143/39/17 191/42/17 190/41/17 142/40/17
f 105/43/48 169/46/48 170/45/48 106/44/48
f 134/47/34 182/50/34 181/49/34 133/48/34
f 129/51/35 178/54/35 192/53/35 144/52/35
f 107/55/30 171/58/30 172/57/30 108/56/30
f 136/59/38 184/62/38 183/61/38 135/60/38
f 109/63/28 173/66/28 174/65/28 110/64/28
f 98/67/27 161/70/27 163/69/27 99/68/27
f 138/71/41 186/74/41 185/73/41 137/72/41
f 111/75/25 175/78/25 176/77/25 112/76/25
f 100/79/24 164/82/24 165/81/24 101/80/24
f 140/83/44 188/86/44 187/85/44 139/84/44
f 102/87/22 166/90/22 167/89/22 103/88/22
f 131/36/46 179/37/46 177/92/46 130/91/46
f 142/40/47 190/41/47 189/94/47 141/93/47
f 130/95/11 146/17/11 147/10/11 131/96/11
f 141/97/10 157/19/10 158/14/10 142/98/10
f 139/99/9 155/23/9 156/20/9 140/100/9
f 137/101/8 153/27/8 154/24/8 138/102/8
f 135/103/7 151/31/7 152/28/7 136/104/7
f 133/105/6 149/2/6 150/1/6 134/106/6
f 144/107/5 160/6/5 145/5/5 129/108/5
f 131/96/4 147/10/4 148/9/4 132/109/4
f 142/98/3 158/14/3 159/13/3 143/110/3
f 129/108/2 145/5/2 146/17/2 130/95/2
f 140/100/1 156/20/1 157/19/1 141/97/1
f 138/102/16 154/24/16 155/23/16 139/99/16
f 136/104/15 152/28/15 153/27/15 137/101/15
f 134/106/14 150/1/14 151/31/14 135/103/14
f 132/109/13 148/9/13 149/33/13 133/111/13
f 143/110/12 159/13/12 160/6/12 144/107/12
f 166/90/14 182/50/14 183/61/14 167/89/14
f 164/82/13 180/38/13 181/112/13 165/81/13
f 175/78/12 191/42/12 192/53/12 176/77/12
f 161/70/11 177/92/11 179/37/11 163/69/11
f 173/66/10 189/94/10 190/41/10 174/65/10
f 171/58/9 187/85/9 188/86/9 172/57/9
f 169/46/8 185/73/8 186/74/8 170/45/8
f 167/89/7 183/61/7 184/62/7 168/113/7
f 165/114/6 181/49/6 182/50/6 166/90/6
f 176/77/5 192/53/5 178/54/5 162/115/5
f 163/69/4 179/37/4 180/38/4 164/82/4
f 174/65/3 190/41/3 191/42/3 175/78/3
f 162/115/2 178/54/2 177/92/2 161/70/2
f 172/57/1 188/86/1 189/94/1 173/66/1
f 170/45/16 186/74/16 187/85/16 171/58/16
f 168/113/15 184/62/15 185/73/15 169/46/15
f 103/88/45 167/89/45 168/113/45 104/116/45
f 141/93/20 189/94/20 188/86/20 140/83/20
f 130/91/21 177/92/21 178/54/21 129/51/21
f 101/117/43 165/114/43 166/90/43 102/87/43
f 112/76/42 176/77/42 162/115/42 97/118/42
f 139/84/23 187/85/23 186/74/23 138/71/23
f 99/68/40 163/69/40 164/82/40 100/79/40
f 110/64/39 174/65/39 175/78/39 111/75/39
f 137/72/26 185/73/26 184/62/26 136/59/26
f 97/118/37 162/115/37 161/70/37 98/67/37
f 108/56/36 172/57/36 173/66/36 109/63/36
f 135/60/29 183/61/29 182/50/29 134/47/29
f 106/44/33 170/45/33 171/58/33 107/55/33
f 144/52/31 192/53/31 191/42/31 143/39/31
f 133/119/32 181/112/32 180/38/32 132/35/32
f 104/116/19 168/113/19 169/46/19 105/43/19
